<mxfile host="app.diagrams.net" modified="2022-03-22T02:31:16.952Z" agent="5.0 (X11; Linux x86_64) AppleWebKit/537.36 (KHTML, like Gecko) Chrome/99.0.4844.51 Safari/537.36" etag="We2y1N1_72vZMa0mLE9D" version="17.1.3" type="github">
  <diagram id="2HM-8lO5k_wtVmww8iGq" name="Page-1">
    <mxGraphModel dx="1422" dy="755" grid="1" gridSize="10" guides="1" tooltips="1" connect="1" arrows="1" fold="1" page="1" pageScale="1" pageWidth="850" pageHeight="1100" math="0" shadow="0">
      <root>
        <mxCell id="0" />
        <mxCell id="1" parent="0" />
        <mxCell id="B4I8ez_E7pYq7m58CyBX-11" style="edgeStyle=orthogonalEdgeStyle;rounded=0;orthogonalLoop=1;jettySize=auto;html=1;exitX=0.5;exitY=0.5;exitDx=0;exitDy=0;exitPerimeter=0;" edge="1" parent="1" source="B4I8ez_E7pYq7m58CyBX-1" target="B4I8ez_E7pYq7m58CyBX-9">
          <mxGeometry relative="1" as="geometry" />
        </mxCell>
        <mxCell id="B4I8ez_E7pYq7m58CyBX-1" value="Author&lt;br&gt;" style="shape=umlActor;verticalLabelPosition=bottom;verticalAlign=top;html=1;outlineConnect=0;" vertex="1" parent="1">
          <mxGeometry x="70" y="60" width="30" height="60" as="geometry" />
        </mxCell>
        <mxCell id="B4I8ez_E7pYq7m58CyBX-12" style="edgeStyle=orthogonalEdgeStyle;rounded=0;orthogonalLoop=1;jettySize=auto;html=1;exitX=0.5;exitY=0.5;exitDx=0;exitDy=0;exitPerimeter=0;" edge="1" parent="1" source="B4I8ez_E7pYq7m58CyBX-4" target="B4I8ez_E7pYq7m58CyBX-9">
          <mxGeometry relative="1" as="geometry" />
        </mxCell>
        <mxCell id="B4I8ez_E7pYq7m58CyBX-4" value="Reviewer&lt;br&gt;" style="shape=umlActor;verticalLabelPosition=bottom;verticalAlign=top;html=1;outlineConnect=0;" vertex="1" parent="1">
          <mxGeometry x="60" y="290" width="30" height="60" as="geometry" />
        </mxCell>
        <mxCell id="B4I8ez_E7pYq7m58CyBX-13" style="edgeStyle=orthogonalEdgeStyle;rounded=0;orthogonalLoop=1;jettySize=auto;html=1;exitX=0.5;exitY=0.5;exitDx=0;exitDy=0;exitPerimeter=0;" edge="1" parent="1" source="B4I8ez_E7pYq7m58CyBX-5" target="B4I8ez_E7pYq7m58CyBX-9">
          <mxGeometry relative="1" as="geometry" />
        </mxCell>
        <mxCell id="B4I8ez_E7pYq7m58CyBX-5" value="Chair" style="shape=umlActor;verticalLabelPosition=bottom;verticalAlign=top;html=1;outlineConnect=0;" vertex="1" parent="1">
          <mxGeometry x="60" y="510" width="30" height="60" as="geometry" />
        </mxCell>
        <mxCell id="B4I8ez_E7pYq7m58CyBX-7" value="Login/Register" style="ellipse;whiteSpace=wrap;html=1;" vertex="1" parent="1">
          <mxGeometry x="430" y="70" width="120" height="80" as="geometry" />
        </mxCell>
        <mxCell id="B4I8ez_E7pYq7m58CyBX-8" value="Register to the conference/ Enter the conference zone" style="ellipse;whiteSpace=wrap;html=1;" vertex="1" parent="1">
          <mxGeometry x="490" y="180" width="120" height="80" as="geometry" />
        </mxCell>
        <mxCell id="B4I8ez_E7pYq7m58CyBX-9" value="Enter website" style="ellipse;whiteSpace=wrap;html=1;" vertex="1" parent="1">
          <mxGeometry x="180" y="210" width="120" height="80" as="geometry" />
        </mxCell>
        <mxCell id="B4I8ez_E7pYq7m58CyBX-10" value="Browse for conferences" style="ellipse;whiteSpace=wrap;html=1;" vertex="1" parent="1">
          <mxGeometry x="300" y="260" width="120" height="80" as="geometry" />
        </mxCell>
        <mxCell id="B4I8ez_E7pYq7m58CyBX-15" value="" style="endArrow=classic;html=1;rounded=0;exitX=1;exitY=0.5;exitDx=0;exitDy=0;entryX=0.5;entryY=0;entryDx=0;entryDy=0;" edge="1" parent="1" source="B4I8ez_E7pYq7m58CyBX-9" target="B4I8ez_E7pYq7m58CyBX-10">
          <mxGeometry width="50" height="50" relative="1" as="geometry">
            <mxPoint x="410" y="360" as="sourcePoint" />
            <mxPoint x="460" y="310" as="targetPoint" />
          </mxGeometry>
        </mxCell>
        <mxCell id="B4I8ez_E7pYq7m58CyBX-16" value="See conference Page" style="ellipse;whiteSpace=wrap;html=1;" vertex="1" parent="1">
          <mxGeometry x="320" y="150" width="120" height="80" as="geometry" />
        </mxCell>
        <mxCell id="B4I8ez_E7pYq7m58CyBX-17" value="" style="endArrow=classic;html=1;rounded=0;exitX=1;exitY=0.398;exitDx=0;exitDy=0;exitPerimeter=0;" edge="1" parent="1" source="B4I8ez_E7pYq7m58CyBX-10" target="B4I8ez_E7pYq7m58CyBX-16">
          <mxGeometry width="50" height="50" relative="1" as="geometry">
            <mxPoint x="410" y="360" as="sourcePoint" />
            <mxPoint x="460" y="310" as="targetPoint" />
          </mxGeometry>
        </mxCell>
        <mxCell id="B4I8ez_E7pYq7m58CyBX-18" value="" style="endArrow=classic;html=1;rounded=0;exitX=0.34;exitY=-0.029;exitDx=0;exitDy=0;exitPerimeter=0;" edge="1" parent="1" source="B4I8ez_E7pYq7m58CyBX-16" target="B4I8ez_E7pYq7m58CyBX-7">
          <mxGeometry width="50" height="50" relative="1" as="geometry">
            <mxPoint x="440" y="190" as="sourcePoint" />
            <mxPoint x="490" y="140" as="targetPoint" />
          </mxGeometry>
        </mxCell>
        <mxCell id="B4I8ez_E7pYq7m58CyBX-19" value="" style="endArrow=classic;html=1;rounded=0;exitX=0.854;exitY=0.929;exitDx=0;exitDy=0;exitPerimeter=0;" edge="1" parent="1" source="B4I8ez_E7pYq7m58CyBX-7" target="B4I8ez_E7pYq7m58CyBX-8">
          <mxGeometry width="50" height="50" relative="1" as="geometry">
            <mxPoint x="410" y="360" as="sourcePoint" />
            <mxPoint x="460" y="310" as="targetPoint" />
          </mxGeometry>
        </mxCell>
        <mxCell id="B4I8ez_E7pYq7m58CyBX-20" value="See papers" style="ellipse;whiteSpace=wrap;html=1;" vertex="1" parent="1">
          <mxGeometry x="470" y="300" width="120" height="80" as="geometry" />
        </mxCell>
        <mxCell id="B4I8ez_E7pYq7m58CyBX-21" value="" style="endArrow=classic;html=1;rounded=0;entryX=0.5;entryY=0;entryDx=0;entryDy=0;" edge="1" parent="1" source="B4I8ez_E7pYq7m58CyBX-8" target="B4I8ez_E7pYq7m58CyBX-20">
          <mxGeometry width="50" height="50" relative="1" as="geometry">
            <mxPoint x="560" y="430" as="sourcePoint" />
            <mxPoint x="610" y="380" as="targetPoint" />
          </mxGeometry>
        </mxCell>
        <mxCell id="B4I8ez_E7pYq7m58CyBX-22" value="" style="endArrow=classic;html=1;rounded=0;exitX=0;exitY=1;exitDx=0;exitDy=0;" edge="1" parent="1" source="B4I8ez_E7pYq7m58CyBX-20">
          <mxGeometry width="50" height="50" relative="1" as="geometry">
            <mxPoint x="410" y="360" as="sourcePoint" />
            <mxPoint x="440" y="440" as="targetPoint" />
          </mxGeometry>
        </mxCell>
        <mxCell id="B4I8ez_E7pYq7m58CyBX-23" value="Modify conference data" style="ellipse;whiteSpace=wrap;html=1;" vertex="1" parent="1">
          <mxGeometry x="360" y="440" width="120" height="80" as="geometry" />
        </mxCell>
        <mxCell id="B4I8ez_E7pYq7m58CyBX-24" value="Chair" style="text;html=1;strokeColor=none;fillColor=none;align=center;verticalAlign=middle;whiteSpace=wrap;rounded=0;" vertex="1" parent="1">
          <mxGeometry x="410" y="380" width="60" height="30" as="geometry" />
        </mxCell>
        <mxCell id="B4I8ez_E7pYq7m58CyBX-25" value="Upload personal Paper" style="ellipse;whiteSpace=wrap;html=1;" vertex="1" parent="1">
          <mxGeometry x="520" y="450" width="120" height="80" as="geometry" />
        </mxCell>
        <mxCell id="B4I8ez_E7pYq7m58CyBX-26" value="" style="endArrow=classic;html=1;rounded=0;exitX=0.611;exitY=1.002;exitDx=0;exitDy=0;exitPerimeter=0;entryX=0.375;entryY=-0.029;entryDx=0;entryDy=0;entryPerimeter=0;" edge="1" parent="1" source="B4I8ez_E7pYq7m58CyBX-20" target="B4I8ez_E7pYq7m58CyBX-25">
          <mxGeometry width="50" height="50" relative="1" as="geometry">
            <mxPoint x="540" y="350" as="sourcePoint" />
            <mxPoint x="590" y="300" as="targetPoint" />
          </mxGeometry>
        </mxCell>
        <mxCell id="B4I8ez_E7pYq7m58CyBX-27" value="Author" style="text;html=1;strokeColor=none;fillColor=none;align=center;verticalAlign=middle;whiteSpace=wrap;rounded=0;" vertex="1" parent="1">
          <mxGeometry x="560" y="390" width="60" height="30" as="geometry" />
        </mxCell>
        <mxCell id="B4I8ez_E7pYq7m58CyBX-28" value="Asks to Review" style="ellipse;whiteSpace=wrap;html=1;" vertex="1" parent="1">
          <mxGeometry x="720" y="300" width="120" height="80" as="geometry" />
        </mxCell>
        <mxCell id="B4I8ez_E7pYq7m58CyBX-29" value="" style="endArrow=classic;html=1;rounded=0;exitX=1;exitY=0.5;exitDx=0;exitDy=0;" edge="1" parent="1" source="B4I8ez_E7pYq7m58CyBX-20" target="B4I8ez_E7pYq7m58CyBX-28">
          <mxGeometry width="50" height="50" relative="1" as="geometry">
            <mxPoint x="540" y="340" as="sourcePoint" />
            <mxPoint x="590" y="290" as="targetPoint" />
          </mxGeometry>
        </mxCell>
        <mxCell id="B4I8ez_E7pYq7m58CyBX-30" value="Reviewer" style="text;html=1;strokeColor=none;fillColor=none;align=center;verticalAlign=middle;whiteSpace=wrap;rounded=0;" vertex="1" parent="1">
          <mxGeometry x="620" y="310" width="60" height="30" as="geometry" />
        </mxCell>
        <mxCell id="B4I8ez_E7pYq7m58CyBX-31" value="" style="endArrow=classic;html=1;rounded=0;exitX=1;exitY=0.5;exitDx=0;exitDy=0;" edge="1" parent="1" source="B4I8ez_E7pYq7m58CyBX-28">
          <mxGeometry width="50" height="50" relative="1" as="geometry">
            <mxPoint x="870" y="340" as="sourcePoint" />
            <mxPoint x="910" y="340" as="targetPoint" />
          </mxGeometry>
        </mxCell>
        <mxCell id="B4I8ez_E7pYq7m58CyBX-32" value="Start Reviewing" style="ellipse;whiteSpace=wrap;html=1;" vertex="1" parent="1">
          <mxGeometry x="910" y="300" width="120" height="80" as="geometry" />
        </mxCell>
        <mxCell id="B4I8ez_E7pYq7m58CyBX-33" value="Add review comments" style="ellipse;whiteSpace=wrap;html=1;" vertex="1" parent="1">
          <mxGeometry x="1100" y="285" width="120" height="80" as="geometry" />
        </mxCell>
        <mxCell id="B4I8ez_E7pYq7m58CyBX-34" value="" style="endArrow=classic;html=1;rounded=0;exitX=1;exitY=0.5;exitDx=0;exitDy=0;" edge="1" parent="1" source="B4I8ez_E7pYq7m58CyBX-32" target="B4I8ez_E7pYq7m58CyBX-33">
          <mxGeometry width="50" height="50" relative="1" as="geometry">
            <mxPoint x="870" y="340" as="sourcePoint" />
            <mxPoint x="920" y="290" as="targetPoint" />
          </mxGeometry>
        </mxCell>
        <mxCell id="B4I8ez_E7pYq7m58CyBX-35" value="" style="endArrow=classic;html=1;rounded=0;exitX=1;exitY=0;exitDx=0;exitDy=0;entryX=0.25;entryY=1;entryDx=0;entryDy=0;entryPerimeter=0;" edge="1" parent="1" source="B4I8ez_E7pYq7m58CyBX-32" target="B4I8ez_E7pYq7m58CyBX-36">
          <mxGeometry width="50" height="50" relative="1" as="geometry">
            <mxPoint x="1040" y="290" as="sourcePoint" />
            <mxPoint x="1090" y="240" as="targetPoint" />
          </mxGeometry>
        </mxCell>
        <mxCell id="B4I8ez_E7pYq7m58CyBX-36" value="Mark as conflict of interests" style="ellipse;whiteSpace=wrap;html=1;" vertex="1" parent="1">
          <mxGeometry x="1030" y="140" width="120" height="80" as="geometry" />
        </mxCell>
        <mxCell id="B4I8ez_E7pYq7m58CyBX-37" value="Make a public comment" style="ellipse;whiteSpace=wrap;html=1;" vertex="1" parent="1">
          <mxGeometry x="890" y="110" width="120" height="80" as="geometry" />
        </mxCell>
        <mxCell id="B4I8ez_E7pYq7m58CyBX-38" value="" style="endArrow=classic;html=1;rounded=0;exitX=0.5;exitY=0;exitDx=0;exitDy=0;entryX=-0.007;entryY=0.429;entryDx=0;entryDy=0;entryPerimeter=0;" edge="1" parent="1" source="B4I8ez_E7pYq7m58CyBX-32" target="B4I8ez_E7pYq7m58CyBX-37">
          <mxGeometry width="50" height="50" relative="1" as="geometry">
            <mxPoint x="1000" y="450" as="sourcePoint" />
            <mxPoint x="1050" y="400" as="targetPoint" />
          </mxGeometry>
        </mxCell>
        <mxCell id="B4I8ez_E7pYq7m58CyBX-45" value="" style="endArrow=classic;html=1;rounded=0;entryX=0.993;entryY=0.617;entryDx=0;entryDy=0;entryPerimeter=0;exitX=0;exitY=1;exitDx=0;exitDy=0;" edge="1" parent="1" source="B4I8ez_E7pYq7m58CyBX-57" target="B4I8ez_E7pYq7m58CyBX-25">
          <mxGeometry width="50" height="50" relative="1" as="geometry">
            <mxPoint x="1030" y="490" as="sourcePoint" />
            <mxPoint x="940" y="320" as="targetPoint" />
          </mxGeometry>
        </mxCell>
        <mxCell id="B4I8ez_E7pYq7m58CyBX-46" value="" style="endArrow=classic;html=1;rounded=0;exitX=0.938;exitY=0.221;exitDx=0;exitDy=0;exitPerimeter=0;entryX=0.111;entryY=0.794;entryDx=0;entryDy=0;entryPerimeter=0;" edge="1" parent="1" source="B4I8ez_E7pYq7m58CyBX-25" target="B4I8ez_E7pYq7m58CyBX-32">
          <mxGeometry width="50" height="50" relative="1" as="geometry">
            <mxPoint x="790" y="490" as="sourcePoint" />
            <mxPoint x="840" y="440" as="targetPoint" />
          </mxGeometry>
        </mxCell>
        <mxCell id="B4I8ez_E7pYq7m58CyBX-49" value="" style="endArrow=classic;html=1;rounded=0;exitX=0.5;exitY=1;exitDx=0;exitDy=0;entryX=0.5;entryY=0;entryDx=0;entryDy=0;" edge="1" parent="1" source="B4I8ez_E7pYq7m58CyBX-33" target="B4I8ez_E7pYq7m58CyBX-50">
          <mxGeometry width="50" height="50" relative="1" as="geometry">
            <mxPoint x="860" y="370" as="sourcePoint" />
            <mxPoint x="1270" y="240" as="targetPoint" />
          </mxGeometry>
        </mxCell>
        <mxCell id="B4I8ez_E7pYq7m58CyBX-50" value="No Comments" style="ellipse;whiteSpace=wrap;html=1;" vertex="1" parent="1">
          <mxGeometry x="1080" y="600" width="120" height="80" as="geometry" />
        </mxCell>
        <mxCell id="B4I8ez_E7pYq7m58CyBX-51" value="Accepts Paper" style="ellipse;whiteSpace=wrap;html=1;" vertex="1" parent="1">
          <mxGeometry x="910" y="670" width="120" height="80" as="geometry" />
        </mxCell>
        <mxCell id="B4I8ez_E7pYq7m58CyBX-52" value="Add Paper to a session" style="ellipse;whiteSpace=wrap;html=1;" vertex="1" parent="1">
          <mxGeometry x="580" y="660" width="120" height="80" as="geometry" />
        </mxCell>
        <mxCell id="B4I8ez_E7pYq7m58CyBX-53" value="" style="endArrow=classic;html=1;rounded=0;exitX=1;exitY=1;exitDx=0;exitDy=0;exitPerimeter=0;entryX=0;entryY=0.5;entryDx=0;entryDy=0;" edge="1" parent="1" source="B4I8ez_E7pYq7m58CyBX-5" target="B4I8ez_E7pYq7m58CyBX-50">
          <mxGeometry width="50" height="50" relative="1" as="geometry">
            <mxPoint x="750" y="460" as="sourcePoint" />
            <mxPoint x="800" y="410" as="targetPoint" />
          </mxGeometry>
        </mxCell>
        <mxCell id="B4I8ez_E7pYq7m58CyBX-55" value="" style="endArrow=classic;html=1;rounded=0;exitX=0.25;exitY=0.975;exitDx=0;exitDy=0;exitPerimeter=0;entryX=0.983;entryY=0.325;entryDx=0;entryDy=0;entryPerimeter=0;" edge="1" parent="1" source="B4I8ez_E7pYq7m58CyBX-50" target="B4I8ez_E7pYq7m58CyBX-51">
          <mxGeometry width="50" height="50" relative="1" as="geometry">
            <mxPoint x="1160" y="770" as="sourcePoint" />
            <mxPoint x="1210" y="720" as="targetPoint" />
          </mxGeometry>
        </mxCell>
        <mxCell id="B4I8ez_E7pYq7m58CyBX-56" value="" style="endArrow=classic;html=1;rounded=0;exitX=0;exitY=0.5;exitDx=0;exitDy=0;" edge="1" parent="1" source="B4I8ez_E7pYq7m58CyBX-51" target="B4I8ez_E7pYq7m58CyBX-52">
          <mxGeometry width="50" height="50" relative="1" as="geometry">
            <mxPoint x="810" y="740" as="sourcePoint" />
            <mxPoint x="860" y="690" as="targetPoint" />
          </mxGeometry>
        </mxCell>
        <mxCell id="B4I8ez_E7pYq7m58CyBX-57" value="There are comments" style="ellipse;whiteSpace=wrap;html=1;" vertex="1" parent="1">
          <mxGeometry x="920" y="420" width="120" height="80" as="geometry" />
        </mxCell>
        <mxCell id="B4I8ez_E7pYq7m58CyBX-58" value="" style="endArrow=classic;html=1;rounded=0;exitX=0.242;exitY=0.963;exitDx=0;exitDy=0;exitPerimeter=0;entryX=0.625;entryY=-0.025;entryDx=0;entryDy=0;entryPerimeter=0;" edge="1" parent="1" source="B4I8ez_E7pYq7m58CyBX-33" target="B4I8ez_E7pYq7m58CyBX-57">
          <mxGeometry width="50" height="50" relative="1" as="geometry">
            <mxPoint x="1170" y="430" as="sourcePoint" />
            <mxPoint x="1220" y="380" as="targetPoint" />
          </mxGeometry>
        </mxCell>
      </root>
    </mxGraphModel>
  </diagram>
</mxfile>
